# xmcd CD database file
#
# Track frame offsets:
#	150
#	20250
#	38925
#	58575
#	76425
#	97150
#	113604
#	133700
#	154600
#	173925
#
# Disc length: 2629 seconds
#
# Revision: 9
# Processed by: cddbd v1.5.2PL0 Copyright (c) Steve Scherf et al.
# Submitted via: CDex 1.70beta3
#
DISCID=7b0a430a
DTITLE=浜田省吾 - MIND SCREEN
DYEAR=1985
DGENRE=Pop
TTITLE0=子午線
TTITLE1=幻想庭園
TTITLE2=インディアン・サマー
TTITLE3=愛を眠らせて
TTITLE4=いつわりの日々
TTITLE5=ダンシング・レディー
TTITLE6=朝のシルエット
TTITLE7=サイレント・ムービー
TTITLE8=グッド・ナイト・エンジェル
TTITLE9=悪い夢
EXTD=YEAR: 1985
EXTT0=
EXTT1=
EXTT2=
EXTT3=
EXTT4=
EXTT5=
EXTT6=
EXTT7=
EXTT8=
EXTT9=
PLAYORDER=
